<svg xmlns="http://www.w3.org/2000/svg" viewBox="0 0 128 128"><path fill="#000" d="M113.8 64c0 27.5-22.3 49.8-49.8 49.8S14.3 91.5 14.3 64 36.6 14.2 64 14.2 113.8 36.5 113.8 64z"/><path fill="#fff" d="M40.3 65.8c0 11.9 9.6 21.5 21.5 21.5s21.5-9.6 21.5-21.5S73.7 44.3 61.8 44.3 40.3 54 40.3 65.8zm25.6 3.8c1.7.7 3.8 1 5.9 1 2.7 0 4.9-.4 6.4-1.2 4.8-2.3 5.9-7.7 5.9-10.8 0-6.8-4.8-11.7-12.3-11.7-3.5 0-6.6.8-8.8 2.3l2.7 5.8c1.6-.9 3.5-1.4 5.8-1.4 3.7 0 6.4 2.4 6.4 6.1 0 3.2-2 5.4-6.6 5.4-1.9 0-3.7-.3-5.2-.9v4.6z"/></svg>